<svg width="44" height="46" viewBox="0 0 44 46" fill="none" xmlns="http://www.w3.org/2000/svg">
<g filter="url(#filter0_i_129_8)">
<path d="M11.2442 28.3674C10.077 28.3674 9.07788 27.9508 8.24673 27.1174C7.41558 26.2842 7 25.2824 7 24.1122C7 22.9421 7.41558 21.9404 8.24673 21.107C9.07788 20.2738 10.077 19.8571 11.2442 19.8571C11.6509 19.8571 12.0267 19.9059 12.3716 20.0033C12.8311 20.1333 13.3663 19.8279 13.3663 19.3492V12.4107C13.3663 10.6481 14.7914 9.21924 16.5494 9.21924H17.6105C18.7825 9.21924 19.7326 10.1718 19.7326 11.3468C19.7326 12.5218 18.7825 13.4743 17.6105 13.4743C16.4384 13.4743 15.4884 14.427 15.4884 15.6019V24.1122C15.4884 25.2824 15.0728 26.2842 14.2417 27.1174C13.4105 27.9508 12.4113 28.3674 11.2442 28.3674Z" fill="#5869FF"/>
<path d="M31.6021 27.436C32.1857 28.4495 32.3253 29.5253 32.0211 30.6636C31.7169 31.8019 31.0594 32.6636 30.0487 33.2486C29.0379 33.8337 27.9648 33.9738 26.8294 33.6688C25.694 33.3637 24.8346 32.7046 24.251 31.6911C24.0476 31.3381 23.9018 30.9873 23.8136 30.6392C23.6962 30.1752 23.1647 29.8632 22.7512 30.1026L16.7577 33.5719C15.2352 34.4532 13.2885 33.9302 12.4094 32.4038L11.8788 31.4825C11.2929 30.4649 11.6406 29.1637 12.6556 28.5762C13.6706 27.9887 14.9685 28.3373 15.5544 29.355C16.1404 30.3726 17.4383 30.7212 18.4533 30.1337L25.8045 25.8785C26.8152 25.2934 27.8884 25.1534 29.0237 25.4584C30.1591 25.7634 31.0186 26.4226 31.6021 27.436Z" fill="#5869FF"/>
<path d="M20.6855 10.1344C21.2691 9.12098 22.1285 8.46179 23.2639 8.15678C24.3993 7.85177 25.4724 7.9918 26.4832 8.57689C27.4939 9.16197 28.1514 10.0237 28.4556 11.1619C28.76 12.3003 28.6202 13.3761 28.0366 14.3896C27.8333 14.7426 27.6033 15.0445 27.3466 15.2953C27.0046 15.6293 27.0008 16.2466 27.4143 16.486L33.4079 19.9553C34.9304 20.8366 35.452 22.7884 34.573 24.3148L34.0425 25.2361C33.4565 26.2537 32.1586 26.6024 31.1436 26.0149C30.1286 25.4273 29.7809 24.1261 30.3669 23.1085C30.9529 22.0909 30.6051 20.7897 29.5901 20.2022L22.239 15.9471C21.2282 15.362 20.5707 14.5002 20.2665 13.3619C19.9623 12.2236 20.1019 11.1478 20.6855 10.1344Z" fill="#5869FF"/>
<path d="M21.8546 27.3037C21.4965 27.3037 21.2062 27.0126 21.2062 26.6536V17.316C21.2062 16.9569 21.4965 16.6658 21.8546 16.6658C22.2127 16.6658 22.503 16.9569 22.503 17.316V26.6536C22.503 27.0126 22.2127 27.3037 21.8546 27.3037ZM19.2609 25.0242C18.9027 25.0242 18.6124 24.7331 18.6124 24.3741V19.5954C18.6124 19.2364 18.9027 18.9454 19.2609 18.9454C19.619 18.9454 19.9093 19.2364 19.9093 19.5954V24.3741C19.9093 24.7331 19.619 25.0242 19.2609 25.0242ZM24.4482 25.0242C24.0901 25.0242 23.7998 24.7331 23.7998 24.3741V19.5954C23.7998 19.2364 24.0901 18.9454 24.4482 18.9454C24.8064 18.9454 25.0967 19.2364 25.0967 19.5954V24.3741C25.0967 24.7331 24.8064 25.0242 24.4482 25.0242ZM16.6672 22.7446C16.3091 22.7446 16.0188 22.4535 16.0188 22.0945V21.875C16.0188 21.516 16.3091 21.225 16.6672 21.225C17.0253 21.225 17.3156 21.516 17.3156 21.875V22.0945C17.3156 22.4535 17.0253 22.7446 16.6672 22.7446ZM27.0419 22.7446C26.6838 22.7446 26.3935 22.4535 26.3935 22.0945V21.875C26.3935 21.516 26.6838 21.225 27.0419 21.225C27.4 21.225 27.6903 21.516 27.6903 21.875V22.0945C27.6903 22.4535 27.4 22.7446 27.0419 22.7446Z" fill="#FF8258"/>
</g>
<defs>
<filter id="filter0_i_129_8" x="7" y="8" width="28" height="26" filterUnits="userSpaceOnUse" color-interpolation-filters="sRGB">
<feFlood flood-opacity="0" result="BackgroundImageFix"/>
<feBlend mode="normal" in="SourceGraphic" in2="BackgroundImageFix" result="shape"/>
<feColorMatrix in="SourceAlpha" type="matrix" values="0 0 0 0 0 0 0 0 0 0 0 0 0 0 0 0 0 0 127 0" result="hardAlpha"/>
<feOffset/>
<feGaussianBlur stdDeviation="1"/>
<feComposite in2="hardAlpha" operator="arithmetic" k2="-1" k3="1"/>
<feColorMatrix type="matrix" values="0 0 0 0 1 0 0 0 0 1 0 0 0 0 1 0 0 0 0.25 0"/>
<feBlend mode="normal" in2="shape" result="effect1_innerShadow_129_8"/>
</filter>
</defs>
</svg>
