<svg width="44" height="46" viewBox="0 0 44 46" fill="none" xmlns="http://www.w3.org/2000/svg">
<g filter="url(#filter0_i_125_73)">
<path d="M11 27.3C9.9 27.3 8.95833 26.9084 8.175 26.125C7.39167 25.3417 7 24.4 7 23.3C7 22.2 7.39167 21.2584 8.175 20.475C8.95833 19.6917 9.9 19.3 11 19.3C11.3833 19.3 11.7375 19.3459 12.0625 19.4375C12.4956 19.5597 13 19.2726 13 18.8226V12.3001C13 10.6432 14.3431 9.30005 16 9.30005H17C18.1046 9.30005 19 10.1955 19 11.3C19 12.4046 18.1046 13.3 17 13.3C15.8954 13.3 15 14.1955 15 15.3V23.3C15 24.4 14.6083 25.3417 13.825 26.125C13.0417 26.9084 12.1 27.3 11 27.3Z" fill="#5869FF"/>
<path d="M30.1866 26.4244C30.7366 27.3771 30.8682 28.3884 30.5815 29.4585C30.2948 30.5285 29.6751 31.3385 28.7225 31.8885C27.7699 32.4385 26.7585 32.5702 25.6885 32.2835C24.6184 31.9967 23.8084 31.3771 23.2584 30.4244C23.0667 30.0925 22.9293 29.7628 22.8462 29.4355C22.7355 28.9994 22.2346 28.7061 21.8449 28.9311L16.1962 32.1924C14.7613 33.0208 12.9266 32.5292 12.0981 31.0943L11.5981 30.2283C11.0459 29.2717 11.3736 28.0485 12.3302 27.4962C13.2868 26.944 14.51 27.2717 15.0622 28.2283C15.6145 29.1849 16.8377 29.5126 17.7943 28.9603L24.7225 24.9603C25.6751 24.4103 26.6865 24.2787 27.7565 24.5654C28.8266 24.8521 29.6366 25.4718 30.1866 26.4244Z" fill="#5869FF"/>
<path d="M19.8981 10.1603C20.4481 9.20764 21.2581 8.58797 22.3282 8.30125C23.3982 8.01453 24.4096 8.14617 25.3622 8.69617C26.3148 9.24617 26.9345 10.0562 27.2212 11.1262C27.508 12.1963 27.3763 13.2076 26.8263 14.1603C26.6347 14.4922 26.4179 14.776 26.176 15.0117C25.8536 15.3257 25.8501 15.906 26.2398 16.131L31.8885 19.3923C33.3234 20.2207 33.815 22.0555 32.9866 23.4904L32.4866 24.3564C31.9343 25.313 30.7111 25.6408 29.7545 25.0885C28.7979 24.5362 28.4702 23.313 29.0225 22.3564C29.5748 21.3998 29.247 20.1767 28.2904 19.6244L21.3622 15.6244C20.4096 15.0744 19.7899 14.2643 19.5032 13.1943C19.2165 12.1242 19.3481 11.1129 19.8981 10.1603Z" fill="#5869FF"/>
<path d="M21 26.3C20.6625 26.3 20.3889 26.0264 20.3889 25.6889L20.3889 16.9112C20.3889 16.5737 20.6625 16.3 21 16.3C21.3375 16.3 21.6111 16.5737 21.6111 16.9112L21.6111 25.6889C21.6111 26.0264 21.3375 26.3 21 26.3ZM18.5556 24.1572C18.218 24.1572 17.9444 23.8836 17.9444 23.5461L17.9444 19.054C17.9444 18.7165 18.218 18.4429 18.5556 18.4429C18.8931 18.4429 19.1667 18.7165 19.1667 19.054L19.1667 23.5461C19.1667 23.8836 18.8931 24.1572 18.5556 24.1572ZM23.4444 24.1572C23.1069 24.1572 22.8333 23.8836 22.8333 23.5461L22.8333 19.054C22.8333 18.7165 23.1069 18.4429 23.4444 18.4429C23.782 18.4429 24.0556 18.7165 24.0556 19.054L24.0556 23.5461C24.0556 23.8836 23.782 24.1572 23.4444 24.1572ZM16.1111 22.0143C15.7736 22.0143 15.5 21.7407 15.5 21.4032L15.5 21.1969C15.5 20.8594 15.7736 20.5858 16.1111 20.5858C16.4486 20.5858 16.7222 20.8594 16.7222 21.1969L16.7222 21.4032C16.7222 21.7407 16.4486 22.0143 16.1111 22.0143ZM25.8889 22.0143C25.5514 22.0143 25.2778 21.7407 25.2778 21.4032L25.2778 21.1969C25.2778 20.8594 25.5514 20.5858 25.8889 20.5858C26.2264 20.5858 26.5 20.8594 26.5 21.1969L26.5 21.4032C26.5 21.7407 26.2264 22.0143 25.8889 22.0143Z" fill="#FF8258"/>
</g>
<defs>
<filter id="filter0_i_125_73" x="0" y="0" width="43.0847" height="45.5847" filterUnits="userSpaceOnUse" color-interpolation-filters="sRGB">
<feFlood flood-opacity="0" result="BackgroundImageFix"/>
<feBlend mode="normal" in="SourceGraphic" in2="BackgroundImageFix" result="shape"/>
<feColorMatrix in="SourceAlpha" type="matrix" values="0 0 0 0 0 0 0 0 0 0 0 0 0 0 0 0 0 0 127 0" result="hardAlpha"/>
<feOffset/>
<feGaussianBlur stdDeviation="1"/>
<feComposite in2="hardAlpha" operator="arithmetic" k2="-1" k3="1"/>
<feColorMatrix type="matrix" values="0 0 0 0 1 0 0 0 0 1 0 0 0 0 1 0 0 0 0.25 0"/>
<feBlend mode="normal" in2="shape" result="effect1_innerShadow_125_73"/>
</filter>
</defs>
</svg>
